<svg xmlns="http://www.w3.org/2000/svg" xmlns:xlink="http://www.w3.org/1999/xlink" width="525" zoomAndPan="magnify" viewBox="0 0 393.75 149.999998" height="200" preserveAspectRatio="xMidYMid meet" version="1.0"><defs><clipPath id="aeca4ac088"><path d="M 243 21.085938 L 297 21.085938 L 297 78 L 243 78 Z M 243 21.085938 " clip-rule="nonzero"/></clipPath><clipPath id="6451f93c76"><path d="M 117 21.085938 L 175 21.085938 L 175 78 L 117 78 Z M 117 21.085938 " clip-rule="nonzero"/></clipPath></defs><path fill="#faebda" d="M 130.945312 107.246094 L 142.710938 107.246094 C 142.710938 107.246094 142.710938 112.179688 142.710938 112.179688 L 137.5625 112.179688 C 136.660156 112.179688 136.238281 112.691406 136.238281 113.679688 C 136.238281 114.671875 136.6875 115.21875 137.535156 115.21875 L 141.691406 115.21875 C 141.691406 115.21875 141.691406 120.183594 141.691406 120.183594 L 137.5625 120.183594 C 136.632812 120.183594 136.179688 120.695312 136.179688 121.753906 L 136.179688 128.285156 C 136.179688 128.285156 130.945312 128.285156 130.945312 128.285156 Z M 130.945312 107.246094 " fill-opacity="1" fill-rule="nonzero"/><path fill="#faebda" d="M 156.019531 106.523438 C 170.882812 106.523438 170.527344 128.921875 156.046875 128.921875 C 141.566406 128.921875 141.144531 106.523438 156.019531 106.523438 Z M 155.988281 123.136719 L 156.113281 123.136719 C 159.875 123.136719 161.683594 121.273438 161.683594 117.664062 C 161.683594 114.113281 159.90625 112.304688 156.054688 112.304688 C 152.207031 112.304688 150.429688 114.113281 150.429688 117.664062 C 150.429688 121.273438 152.140625 123.136719 156 123.136719 Z M 155.988281 123.136719 " fill-opacity="1" fill-rule="nonzero"/><path fill="#faebda" d="M 180.5625 106.523438 C 195.425781 106.523438 195.070312 128.921875 180.589844 128.921875 C 166.109375 128.921875 165.6875 106.523438 180.5625 106.523438 Z M 180.523438 123.136719 L 180.648438 123.136719 C 184.410156 123.136719 186.21875 121.273438 186.21875 117.664062 C 186.21875 114.113281 184.4375 112.304688 180.589844 112.304688 C 176.742188 112.304688 174.960938 114.113281 174.960938 117.664062 C 174.960938 121.273438 176.675781 123.136719 180.53125 123.136719 Z M 180.523438 123.136719 " fill-opacity="1" fill-rule="nonzero"/><path fill="#faebda" d="M 195.351562 128.285156 L 195.351562 107.246094 C 195.351562 107.246094 201.007812 107.246094 201.007812 107.246094 C 208.503906 107.246094 212.476562 110.738281 212.476562 117.625 C 212.476562 124.640625 208.386719 128.285156 201.132812 128.285156 Z M 206.90625 117.683594 C 206.90625 114.035156 205.007812 112.171875 201.09375 112.171875 L 201.09375 123.339844 C 205.007812 123.339844 206.90625 121.417969 206.90625 117.683594 Z M 206.90625 117.683594 " fill-opacity="1" fill-rule="nonzero"/><path fill="#faebda" d="M 223.25 117.722656 C 223.25 110.253906 230.449219 104.175781 238.722656 107.820312 L 238.722656 113.902344 C 234.59375 110.679688 228.9375 112.488281 228.9375 117.722656 C 228.9375 122.957031 234.59375 124.707031 238.722656 121.722656 L 238.722656 127.652344 C 230.449219 131.441406 223.25 124.878906 223.25 117.722656 Z M 223.25 117.722656 " fill-opacity="1" fill-rule="nonzero"/><path fill="#faebda" d="M 252.847656 106.523438 C 267.710938 106.523438 267.355469 128.921875 252.875 128.921875 C 238.394531 128.921875 237.972656 106.523438 252.847656 106.523438 Z M 252.816406 123.136719 L 252.941406 123.136719 C 256.703125 123.136719 258.511719 121.273438 258.511719 117.664062 C 258.511719 114.054688 256.734375 112.304688 252.886719 112.304688 C 249.035156 112.304688 247.257812 114.113281 247.257812 117.664062 C 247.257812 121.273438 248.96875 123.136719 252.828125 123.136719 Z M 252.816406 123.136719 " fill-opacity="1" fill-rule="nonzero"/><path fill="#faebda" d="M 266.578125 125.515625 C 266.578125 123.589844 267.539062 122.601562 269.644531 122.601562 L 269.855469 122.601562 C 271.878906 122.601562 272.898438 123.621094 272.898438 125.582031 C 272.898438 127.507812 271.90625 128.496094 269.800781 128.496094 L 269.617188 128.496094 C 267.566406 128.496094 266.578125 127.476562 266.578125 125.515625 Z M 266.578125 125.515625 " fill-opacity="1" fill-rule="nonzero"/><g clip-path="url(#aeca4ac088)"><path fill="#faebda" d="M 271.925781 23.703125 C 269.203125 23.308594 267.183594 23.316406 262.890625 22.703125 L 254.058594 21.144531 C 251.769531 20.816406 251.019531 21.953125 250.828125 23.308594 C 250.355469 26.597656 254.117188 26.847656 253.855469 33.757812 C 253.644531 35.765625 252.992188 40.28125 252.144531 46.226562 C 250.960938 54.460938 249.929688 61.175781 249.296875 63.574219 C 247.652344 68.449219 243.996094 67.929688 243.582031 70.789062 C 243.398438 72.078125 244.246094 73.300781 246.535156 73.628906 L 255.445312 74.6875 C 260.101562 75.347656 265.257812 76.378906 268.335938 76.820312 C 283.875 79.042969 293.324219 69.882812 295.640625 53.703125 C 298.308594 35.085938 286.464844 25.789062 271.925781 23.710938 Z M 268.046875 68.59375 C 264.113281 68.027344 263.054688 66.199219 263.980469 59.753906 L 267.152344 37.558594 C 267.816406 32.898438 268.703125 30.839844 271.558594 31.246094 C 280.21875 32.488281 283.355469 42.214844 281.789062 53.164062 C 280.679688 60.898438 276.988281 69.867188 268.027344 68.585938 Z M 268.046875 68.59375 " fill-opacity="1" fill-rule="nonzero"/></g><path fill="#faebda" d="M 243.332031 32.699219 C 237.558594 32.351562 233.613281 37.613281 232.824219 37.566406 C 232.179688 37.527344 232.027344 36.355469 231.890625 35.113281 C 231.304688 32.757812 230.410156 32.054688 228.753906 31.957031 C 227.167969 31.859375 226.464844 32.6875 221.789062 34.507812 C 218.449219 35.824219 215.542969 35.941406 215.402344 38.25 C 215.332031 39.328125 215.949219 39.953125 216.851562 40.511719 C 217.691406 41.070312 219.144531 42.242188 218.980469 44.839844 L 218.132812 58.847656 C 218.007812 60.945312 217.804688 63.101562 215.632812 65.441406 C 215.007812 66.199219 213.359375 67.035156 213.246094 68.988281 C 213.167969 70.289062 213.746094 71.480469 215.765625 71.605469 C 219.085938 71.808594 221.335938 71.65625 224.234375 71.828125 C 228.640625 72.097656 231.21875 72.539062 233.605469 72.683594 C 236.125 72.839844 236.980469 71.875 237.078125 70.289062 C 237.191406 68.335938 234.914062 67.769531 233.679688 66.535156 C 231.488281 64.449219 231.207031 63.054688 231.421875 59.65625 L 232.046875 49.410156 C 232.257812 45.871094 233.769531 42.558594 236.367188 42.714844 C 237.375 42.773438 238.164062 44.050781 238.597656 46.542969 C 239.136719 49.621094 239.25 51.296875 242.136719 51.46875 C 246.324219 51.71875 250.296875 47.179688 250.585938 42.414062 C 251.007812 35.488281 247.390625 32.949219 243.351562 32.699219 Z M 243.332031 32.699219 " fill-opacity="1" fill-rule="nonzero"/><path fill="#faebda" d="M 119.015625 63.273438 C 118.515625 63.429688 117.886719 63.9375 117.648438 64.410156 C 116.222656 66.882812 114.011719 70.078125 108.949219 71.65625 C 102.746094 73.589844 98.90625 70.316406 98.175781 67.96875 C 98.019531 67.46875 98.355469 67.054688 99 66.855469 C 102.90625 65.324219 109.152344 62.515625 112.867188 58.859375 C 114.53125 57.164062 115.472656 54.914062 114.609375 52.132812 C 112.941406 46.785156 107.726562 39.097656 96.460938 42.597656 C 84.117188 46.4375 79.5 57.742188 83.03125 69.085938 C 86.609375 80.574219 96.183594 86.433594 108.449219 82.613281 C 119.226562 79.253906 122.699219 70.585938 121.015625 65.160156 C 120.523438 63.59375 119.734375 63.054688 119.023438 63.273438 Z M 92.660156 59.582031 C 91.441406 55.65625 92.660156 51.285156 96.441406 50.101562 C 99.078125 49.285156 101.464844 50.652344 102.351562 53.507812 C 102.640625 54.433594 102.765625 55.097656 102.464844 55.894531 C 101.492188 58.550781 97.164062 60.984375 95.238281 61.589844 C 94.027344 61.964844 93.191406 61.292969 92.660156 59.582031 Z M 92.660156 59.582031 " fill-opacity="1" fill-rule="nonzero"/><path fill="#faebda" d="M 211.5625 55.855469 C 211.042969 55.894531 210.3125 56.242188 209.964844 56.636719 C 208.011719 58.714844 205.117188 61.3125 199.824219 61.675781 C 193.339844 62.128906 190.367188 58.058594 190.191406 55.597656 C 190.152344 55.078125 190.585938 54.75 191.25 54.703125 C 195.40625 54.117188 202.132812 52.824219 206.585938 50.121094 C 208.597656 48.863281 210.03125 46.890625 209.828125 43.984375 C 209.445312 38.394531 206.144531 29.707031 194.367188 30.523438 C 181.476562 31.410156 174.367188 41.339844 175.183594 53.191406 C 176.011719 65.1875 183.96875 73.109375 196.792969 72.222656 C 208.050781 71.441406 213.4375 63.8125 213.042969 58.148438 C 212.929688 56.511719 212.285156 55.800781 211.53125 55.855469 Z M 186.777344 46.1875 C 186.5 42.089844 188.691406 38.113281 192.644531 37.84375 C 195.40625 37.652344 197.410156 39.539062 197.609375 42.523438 C 197.679688 43.492188 197.648438 44.167969 197.179688 44.871094 C 195.621094 47.226562 190.847656 48.601562 188.835938 48.738281 C 187.566406 48.824219 186.910156 47.96875 186.785156 46.175781 Z M 186.777344 46.1875 " fill-opacity="1" fill-rule="nonzero"/><path fill="#faebda" d="M 307.429688 77.878906 C 305.175781 77.050781 304.5625 75.148438 305.261719 73.214844 C 306.089844 70.960938 308.496094 69.578125 311.277344 69.578125 C 312.902344 69.519531 314.335938 69.605469 315.625 70.078125 C 315.941406 70.191406 315.972656 70.710938 314.980469 73.425781 C 313.730469 76.839844 311.035156 79.207031 307.429688 77.890625 Z M 326.585938 83.21875 C 326.132812 83.054688 325.566406 83.21875 325.046875 83.019531 C 323.304688 82.382812 323.417969 80.671875 323.96875 79.1875 C 325.429688 75.195312 327.09375 71.855469 328.796875 67.21875 C 332.839844 56.203125 328.382812 50.410156 319.503906 47.148438 C 309.652344 43.53125 302.53125 46.410156 300.855469 50.980469 C 299.394531 54.972656 301.230469 57.914062 304.261719 59.023438 C 307.035156 60.042969 308.574219 58.628906 310.082031 56.703125 C 312.480469 53.566406 314.941406 51.835938 317.453125 52.757812 C 320.351562 53.816406 321.0625 56.855469 319.839844 60.207031 C 318.867188 62.839844 318.050781 63.496094 317.28125 63.792969 C 315.90625 64.167969 311.355469 63.015625 306.410156 62.949219 C 299.308594 62.976562 294.988281 65.410156 292.863281 71.203125 C 289.8125 79.507812 296.894531 85.230469 304.832031 85.164062 C 310.449219 85.113281 310.566406 83.316406 311.460938 83.644531 C 312.75 84.113281 310.429688 88.011719 315.269531 89.792969 C 320.03125 91.542969 325.332031 89.828125 326.988281 85.328125 C 327.316406 84.421875 327.238281 83.449219 326.59375 83.210938 Z M 326.585938 83.21875 " fill-opacity="1" fill-rule="nonzero"/><g clip-path="url(#6451f93c76)"><path fill="#faebda" d="M 163.367188 41.089844 C 162.847656 42.847656 162.648438 55 163.011719 57.414062 C 163.582031 60.476562 164.957031 61.390625 166.824219 61.109375 C 168.777344 60.707031 169.851562 58.859375 170.171875 58.03125 C 171 56.78125 171.546875 56.703125 172.09375 56.617188 C 172.769531 56.625 173.277344 57.789062 173.441406 58.886719 C 173.441406 58.917969 173.460938 58.953125 173.460938 58.992188 C 173.710938 60.332031 173.105469 62.785156 172.71875 63.824219 C 171.363281 67.507812 167.613281 72.445312 161.136719 73.414062 C 154.441406 74.417969 150.628906 70.722656 149.648438 64.140625 C 149.4375 62.714844 149.339844 61.089844 149.332031 59.398438 C 149.28125 53.171875 150.3125 46.109375 150.140625 44.984375 C 150.070312 44.503906 149.945312 44.15625 149.734375 43.90625 C 149.464844 43.589844 149.023438 43.4375 148.320312 43.347656 C 147.203125 43.40625 139.152344 45.839844 138.496094 45.945312 C 137.84375 46.050781 137.5625 46.429688 137.410156 46.898438 C 136.765625 49.351562 136.390625 58.050781 136.863281 61.234375 C 137.324219 64.304688 138.710938 65.332031 140.574219 65.054688 C 142.539062 64.652344 143.605469 62.804688 144.039062 61.957031 C 144.867188 60.707031 145.300781 60.648438 145.847656 60.5625 C 146.636719 60.5625 147.15625 61.820312 147.328125 62.917969 C 147.511719 64.132812 147.050781 66.324219 146.484375 67.757812 C 145.222656 71.316406 141.382812 76.378906 134.898438 77.351562 C 128.308594 78.339844 124.382812 74.550781 123.410156 68.074219 C 122.515625 62.128906 123.660156 54.183594 123.890625 50.554688 C 123.265625 48.34375 120.59375 47.265625 119.667969 46.871094 C 118.707031 46.457031 117.871094 46.128906 117.695312 44.917969 C 117.4375 43.167969 119.160156 42.261719 121.476562 40.925781 C 121.476562 40.925781 121.488281 40.925781 121.496094 40.914062 C 122.082031 40.578125 122.699219 40.222656 123.335938 39.808594 C 124.132812 39.335938 124.785156 38.894531 125.34375 38.492188 C 126.019531 37.027344 125.816406 32.890625 127 31.292969 C 129.550781 28.097656 132.570312 26.53125 135.207031 26.136719 C 136.523438 25.933594 137.757812 26.65625 138.082031 28.851562 C 138.316406 30.390625 137.652344 36.429688 137.71875 36.875 C 137.746094 37.09375 137.765625 37.199219 138.101562 37.152344 C 138.757812 37.058594 144.945312 35.816406 148.601562 34.59375 C 149.832031 34.179688 150.773438 33.765625 151.121094 33.410156 C 151.292969 33.246094 151.429688 33.007812 151.542969 32.707031 C 151.71875 32.253906 151.832031 31.679688 151.957031 31.0625 C 152.226562 29.214844 152.476562 27.570312 153.34375 26.394531 C 155.894531 23.203125 158.914062 21.632812 161.550781 21.238281 C 162.867188 21.039062 164.101562 21.757812 164.425781 23.953125 C 164.589844 25.011719 164.1875 27.320312 164.023438 29.351562 C 164.042969 29.351562 164.0625 29.351562 164.089844 29.351562 L 168.976562 28.28125 C 170.304688 28.078125 172.230469 28.050781 173.277344 29.273438 C 173.625 29.667969 173.867188 30.195312 173.972656 30.898438 C 174.25 32.765625 173.625 37.578125 168.785156 38.972656 L 164.351562 40.085938 C 163.695312 40.183594 163.417969 40.570312 163.378906 41.136719 Z M 163.367188 41.089844 " fill-opacity="1" fill-rule="nonzero"/></g><path fill="#faebda" d="M 369.292969 67.46875 C 365.050781 65.851562 360.125 67.660156 358.824219 71.085938 C 358.335938 72.386719 358.941406 73.253906 359.539062 74.570312 C 360.152344 75.820312 360.394531 78.523438 359.539062 80.785156 C 356.988281 87.492188 348.867188 94.371094 344.210938 92.601562 C 342.980469 92.128906 340.546875 90.898438 342.34375 86.171875 C 345.058594 79.054688 355.515625 68.421875 356.691406 65.34375 C 357.027344 64.457031 357.09375 62.832031 355.113281 62.082031 C 353.464844 61.457031 348.433594 60.484375 344.125 60.484375 C 340.277344 60.511719 338.074219 61.417969 337.371094 63.265625 C 336.898438 64.496094 337.246094 65.027344 338.082031 66.121094 C 338.734375 67.074219 339.378906 68.257812 338.707031 70.046875 C 337.589844 72.992188 332.347656 78.207031 330.058594 84.230469 C 326.59375 93.332031 331.722656 97.566406 336.523438 99.382812 C 341.929688 101.441406 347.375 97.949219 348.125 98.238281 C 348.328125 98.316406 348.414062 98.507812 348.367188 98.644531 C 347.710938 100.355469 340.246094 108.648438 332.65625 105.753906 C 330.597656 104.972656 329.230469 103.425781 328.546875 100.894531 C 328.179688 99.585938 328.152344 98.632812 326.988281 98.191406 C 324.726562 97.335938 321.265625 98.835938 319.832031 102.597656 C 316.183594 112.179688 330.941406 120.550781 344.125 114.75 C 356.351562 109.371094 370.6875 86.761719 373.421875 79.5625 C 375.164062 74.972656 374.519531 69.453125 369.3125 67.480469 Z M 369.292969 67.46875 " fill-opacity="1" fill-rule="nonzero"/><path fill="#faebda" d="M 65.933594 64.226562 C 65.480469 64.09375 65.25 63.890625 65.742188 62.910156 C 67.414062 59.472656 67.183594 51.75 62.171875 47.824219 C 53.984375 41.308594 44.363281 42.964844 35.964844 47.9375 C 28.21875 52.546875 22.820312 59.214844 20.847656 64.3125 C 15.804688 77.714844 23.898438 80.851562 26.582031 81.066406 C 26.6875 81.082031 26.996094 81.140625 27.054688 81.09375 C 27.6875 81.09375 28.390625 81.066406 28.96875 80.84375 L 29.585938 80.6875 C 29.710938 80.601562 29.765625 80.5625 29.871094 80.582031 C 30.21875 80.429688 30.527344 80.21875 30.824219 80.007812 C 33.132812 78.390625 32.382812 76.917969 31.25 74.003906 C 29.441406 69.472656 31.605469 63.234375 38.042969 58.183594 C 45.71875 52.179688 53.128906 54.617188 55.457031 58.972656 C 57.332031 62.5625 56.648438 67.296875 52.214844 69.757812 C 52.03125 69.882812 51.867188 69.914062 51.675781 69.769531 L 51.5 69.527344 C 51.5 69.527344 49.078125 63.34375 48.308594 62.246094 C 47.027344 60.417969 45.605469 60.332031 44.507812 61.089844 C 42.378906 62.582031 39.175781 66.179688 38.320312 70.132812 C 38.195312 71.125 38.5625 72.414062 39.023438 73.722656 C 39.15625 74.175781 39.292969 74.628906 39.523438 75.089844 L 39.5625 75.148438 L 39.542969 75.253906 L 49.367188 97.84375 C 50.367188 100.046875 50.316406 102.441406 49.519531 104.808594 C 49.289062 105.511719 49.203125 106.300781 49.117188 107.089844 C 49.058594 108.042969 49.402344 108.792969 50.316406 109.332031 C 51.050781 109.726562 51.867188 109.609375 52.722656 109.015625 C 53.65625 108.542969 54.695312 107.8125 55.550781 107.214844 C 58.207031 105.175781 60.132812 103.644531 63.046875 101.605469 L 71.640625 95.871094 C 78.191406 91.378906 84.761719 83.519531 82.800781 75.28125 C 82.414062 73.558594 81.636719 71.925781 80.441406 70.222656 C 77.121094 65.476562 71.976562 62.910156 65.925781 64.238281 Z M 63.375 92.3125 C 62.488281 92.667969 61.679688 92.628906 61.171875 91.773438 L 58.71875 86.269531 L 58.015625 84.757812 L 55.273438 78.851562 C 55.042969 78.398438 54.859375 78.015625 54.851562 77.753906 C 54.800781 77.4375 54.898438 77.195312 55.050781 76.917969 C 55.207031 76.640625 55.550781 76.386719 55.964844 76.109375 C 56.195312 75.945312 56.417969 75.878906 56.589844 75.761719 C 62.664062 72.386719 65.960938 74.253906 69.109375 78.746094 C 71.910156 82.875 69.703125 89.539062 63.382812 92.3125 Z M 63.375 92.3125 " fill-opacity="1" fill-rule="nonzero"/></svg>